<?xml version="1.0" encoding="UTF-8"?>
<svg id="Camada_2" data-name="Camada 2" xmlns="http://www.w3.org/2000/svg" viewBox="0 0 360.31 344.08">
  <defs>
    <style>
      .cls-1 {
        fill: #0f623c;
      }

      .cls-2 {
        fill: #fff;
      }

      .cls-3 {
        fill: #d4151e;
      }

      .cls-4 {
        fill: #004128;
      }
    </style>
  </defs>
  <g id="Camada_1-2" data-name="Camada 1">
    <path class="cls-2" d="M329.14,48.84h-14.17v-14.17c0-1.94-1.57-3.51-3.51-3.51h-12.62c-1.94,0-3.51,1.57-3.51,3.51v14.17h-14.17c-1.94,0-3.51,1.57-3.51,3.5v12.63c0,1.94,1.57,3.51,3.51,3.51h14.17v14.17c0,1.93,1.57,3.5,3.51,3.5h12.62c1.94,0,3.51-1.57,3.51-3.5v-14.17h14.17c1.94,0,3.51-1.57,3.51-3.51v-12.63c0-1.93-1.57-3.5-3.51-3.5ZM314.38,60.07l-9.23,9.77-9.23-9.77c-1.27-1.07-2.1-2.68-2.1-4.49,0-3.22,2.59-5.81,5.81-5.81,2.25,0,4.25,1.27,5.18,3.18.14.19.24.44.34.68.1-.24.19-.49.34-.68.93-1.91,2.93-3.18,5.17-3.18,3.23,0,5.81,2.59,5.81,5.81,0,1.81-.83,3.42-2.09,4.49Z"/>
    <path class="cls-3" d="M329.14,48.84h-14.17v-14.17c0-1.94-1.57-3.51-3.51-3.51h-12.62c-1.94,0-3.51,1.57-3.51,3.51v14.17h-14.17c-1.94,0-3.51,1.57-3.51,3.5v12.63c0,1.94,1.57,3.51,3.51,3.51h14.17v14.17c0,1.93,1.57,3.5,3.51,3.5h12.62c1.94,0,3.51-1.57,3.51-3.5v-14.17h14.17c1.94,0,3.51-1.57,3.51-3.51v-12.63c0-1.93-1.57-3.5-3.51-3.5ZM314.38,60.07l-9.23,9.77-9.23-9.77c-1.27-1.07-2.1-2.68-2.1-4.49,0-3.22,2.59-5.81,5.81-5.81,2.25,0,4.25,1.27,5.18,3.18.14.19.24.44.34.68.1-.24.19-.49.34-.68.93-1.91,2.93-3.18,5.17-3.18,3.23,0,5.81,2.59,5.81,5.81,0,1.81-.83,3.42-2.09,4.49Z"/>
    <path class="cls-1" d="M233.66,188.14c-9.55,46.79-58.6,74.53-103.13,79.37-24.84,2.7-72.32-5.75-58.72-41.16,15.2-39.56,101.1-63.93,134.74-39.4,1.87,1.36,3.34,3.64,5.03,4.73,5.8,3.76,15.8-2.38,22.09-3.55Z"/>
    <path class="cls-1" d="M131.52,174.47c-.34-17.79,10.22-35.25,23.11-46.83,24.34-21.86,71.1-35.75,102.8-26.05,21.91,6.7,33.04,23.52,20.36,45.1-12.03,20.48-38.44,32.48-60.63,38.04-23.41-20.22-57.56-17.32-85.63-10.27Z"/>
    <path class="cls-1" d="M287.67,8.88c-27.46,8.89-74.88,36.08-89.66,61.29-4.65,7.93-8.83,19.37-5.01,28.15,16.2-6.14,34.79-8.26,52.08-7.16,18.16,1.16,42.69,11.68,45.2,31.91,15.72-5,33.43-12.16,47.05-21.59,49.45-34.25,12.74-112.82-49.66-92.6ZM305.15,99.56c-22.59,0-40.9-18.31-40.9-40.9,0-6.71,1.61-13.04,4.48-18.62,0-.01.01-.02.01-.03,3.49-7.6,9.43-14.05,17.97-17.86,5.54-2.81,11.81-4.39,18.44-4.39,22.59,0,40.9,18.31,40.9,40.9s-18.31,40.9-40.9,40.9Z"/>
    <path class="cls-4" d="M301.7,306.26c-54.19,42.02-140.56,48.43-202.92,22.16C18.94,294.78-17.76,199.32,8.3,118.27,39.95,19.86,153.76-31.23,246.13,20.51l-2.38,1.5c-1.17.68-2.49,1.54-3.84,2.42l-1.58,1.01h-.01c-2.88,1.84-5.66,3.47-7.11,3.37-2-.13-11.34-4.82-14.35-5.86C104-15.91-2.76,84.77,16.98,199.41c12.05,69.98,69.6,133.03,145.66,118.74,51.5-9.68,107.88-51.73,73.41-108.81l4.55-15.91c.61-.75,3.75,2.7,4.23,3.24,6.55,7.34,12.42,20.87,14.44,30.46,9.5,45.11-19.89,76.48-58.13,93.73l-21.7,8.55c50.24.49,103.54-16.52,135.59-56.67,20.68-25.91,36.35-71.28,11.79-99.49-2.88-3.3-7.16-6.8-11.95-9.74-4.79-2.95-10.09-5.35-15-6.47-.18-.05-.4-.1-.61-.14-.01,0-.03-.01-.04-.01-.18-.04-.41-.08-.67-.13-.03-.01-.06-.01-.09-.02-.27-.05-.53-.09-.79-.13-.13-.02-.27-.04-.4-.06-3.07-.48-8.68-1.03-15.57-.36,3.18-4.47,6.4-9.45,7.7-14.81,31.32,1.35,58.39,22.35,63.55,53.88,6.88,42.02-19.02,86.01-51.25,111Z"/>
  </g>
</svg>