<?xml version="1.0" encoding="UTF-8"?>
<svg id="Camada_2" data-name="Camada 2" xmlns="http://www.w3.org/2000/svg" viewBox="0 0 851.48 344.08">
  <defs>
    <style>
      .cls-1 {
        fill: #0f623c;
      }

      .cls-2 {
        fill: #fff;
      }

      .cls-3 {
        fill: #d4151e;
      }

      .cls-4 {
        fill: #004128;
      }
    </style>
  </defs>
  <g id="Camada_1-2" data-name="Camada 1">
    <g>
      <polygon class="cls-4" points="601.93 115.91 601.93 69.07 616.89 69.07 616.89 142.59 604.21 142.59 570.03 98.04 567.78 96.39 568.13 140.35 567.12 142.59 553.46 142.59 552.48 141.61 552.48 69.07 565.82 69.07 601.93 115.91"/>
      <polygon class="cls-4" points="569.72 165.36 605.83 211.56 605.83 165.36 620.8 165.36 620.8 238.88 608.11 238.88 572 192.04 572 238.88 557.03 238.88 557.03 165.36 569.72 165.36"/>
      <path class="cls-4" d="M811.3,67.96c51.95-2.05,53.86,74.1,3.74,75.95-51.39,1.9-53.94-73.98-3.74-75.95ZM811.3,81.62c-29.24,2.53-26.64,48.65,1.76,48.65,32.04,0,29.67-51.37-1.76-48.65Z"/>
      <path class="cls-4" d="M500.3,67.96c52.17-3.2,55.15,73.62,5.01,75.92-51.1,2.34-54.53-72.87-5.01-75.92ZM487.64,124.14c10.45,10.07,28.83,6.76,35.44-6.07,8.13-15.77-1.78-37.72-21.01-36.64-21.16,1.19-29,28.67-14.43,42.71Z"/>
      <path class="cls-4" d="M442.94,219.79c.81-.74,1.33-2.36,2.51-3.01l10.07,10.07c-13.91,17.41-43.96,17.08-58.23.33-15.12-17.75-10.53-46.92,10.08-58.25,15.19-8.35,36.76-6.38,47.53,7.82l-9.55,9.38c-7.47-6.84-15.82-10.57-26.06-7.23-13.6,4.44-18.29,20.09-13.71,32.84,5.55,15.47,25.64,18.72,37.36,8.05Z"/>
      <polygon class="cls-4" points="685.21 69.07 685.21 82.08 663.09 82.08 663.09 142.59 647.47 142.59 647.47 82.08 625.35 82.08 625.35 69.07 685.21 69.07"/>
      <polygon class="cls-4" points="480.91 165.36 480.91 225.22 517.35 225.22 517.35 238.88 465.29 238.88 465.29 165.36 480.91 165.36"/>
      <rect class="cls-4" x="693.67" y="69.07" width="15.62" height="73.52"/>
      <path class="cls-3" d="M431.35,269.21c-.62.69-1.35,1.5-2.09,2.24l2.09-2.24Z"/>
      <rect class="cls-4" x="526.45" y="165.36" width="14.96" height="73.52"/>
      <rect class="cls-4" x="636.41" y="165.36" width="14.96" height="73.52"/>
      <path class="cls-2" d="M329.14,48.84h-14.17v-14.17c0-1.94-1.57-3.51-3.51-3.51h-12.62c-1.94,0-3.51,1.57-3.51,3.51v14.17h-14.17c-1.94,0-3.51,1.57-3.51,3.5v12.63c0,1.94,1.57,3.51,3.51,3.51h14.17v14.17c0,1.93,1.57,3.5,3.51,3.5h12.62c1.94,0,3.51-1.57,3.51-3.5v-14.17h14.17c1.94,0,3.51-1.57,3.51-3.51v-12.63c0-1.93-1.57-3.5-3.51-3.5ZM314.38,60.07l-9.23,9.77-9.23-9.77c-1.27-1.07-2.1-2.68-2.1-4.49,0-3.22,2.59-5.81,5.81-5.81,2.25,0,4.25,1.27,5.18,3.18.14.19.24.44.34.68.1-.24.19-.49.34-.68.93-1.91,2.93-3.18,5.17-3.18,3.23,0,5.81,2.59,5.81,5.81,0,1.81-.83,3.42-2.09,4.49Z"/>
      <path class="cls-3" d="M329.14,48.84h-14.17v-14.17c0-1.94-1.57-3.51-3.51-3.51h-12.62c-1.94,0-3.51,1.57-3.51,3.51v14.17h-14.17c-1.94,0-3.51,1.57-3.51,3.5v12.63c0,1.94,1.57,3.51,3.51,3.51h14.17v14.17c0,1.93,1.57,3.5,3.51,3.5h12.62c1.94,0,3.51-1.57,3.51-3.5v-14.17h14.17c1.94,0,3.51-1.57,3.51-3.51v-12.63c0-1.93-1.57-3.5-3.51-3.5ZM314.38,60.07l-9.23,9.77-9.23-9.77c-1.27-1.07-2.1-2.68-2.1-4.49,0-3.22,2.59-5.81,5.81-5.81,2.25,0,4.25,1.27,5.18,3.18.14.19.24.44.34.68.1-.24.19-.49.34-.68.93-1.91,2.93-3.18,5.17-3.18,3.23,0,5.81,2.59,5.81,5.81,0,1.81-.83,3.42-2.09,4.49Z"/>
      <path class="cls-1" d="M233.66,188.14c-9.55,46.79-58.6,74.53-103.13,79.37-24.84,2.7-72.32-5.75-58.72-41.16,15.2-39.56,101.1-63.93,134.74-39.4,1.87,1.36,3.34,3.64,5.03,4.73,5.8,3.76,15.8-2.38,22.09-3.55Z"/>
      <path class="cls-1" d="M131.52,174.47c-.34-17.79,10.22-35.25,23.11-46.83,24.34-21.86,71.1-35.75,102.8-26.05,21.91,6.7,33.04,23.52,20.36,45.1-12.03,20.48-38.44,32.48-60.63,38.04-23.41-20.22-57.56-17.32-85.63-10.27Z"/>
      <path class="cls-1" d="M287.67,8.88c-27.46,8.89-74.88,36.08-89.66,61.29-4.65,7.93-8.83,19.37-5.01,28.15,16.2-6.14,34.79-8.26,52.08-7.16,18.16,1.16,42.69,11.68,45.2,31.91,15.72-5,33.43-12.16,47.05-21.59,49.45-34.25,12.74-112.82-49.66-92.6ZM305.15,99.56c-22.59,0-40.9-18.31-40.9-40.9,0-6.71,1.61-13.04,4.48-18.62,0-.01.01-.02.01-.03,3.49-7.6,9.43-14.05,17.97-17.86,5.54-2.81,11.81-4.39,18.44-4.39,22.59,0,40.9,18.31,40.9,40.9s-18.31,40.9-40.9,40.9Z"/>
      <path class="cls-4" d="M301.7,306.26c-54.19,42.02-140.56,48.43-202.92,22.16C18.94,294.78-17.76,199.32,8.3,118.27,39.95,19.86,153.76-31.23,246.13,20.51l-2.38,1.5c-1.17.68-2.49,1.54-3.84,2.42l-1.58,1.01h-.01c-2.88,1.84-5.66,3.47-7.11,3.37-2-.13-11.34-4.82-14.35-5.86C104-15.91-2.76,84.77,16.98,199.41c12.05,69.98,69.6,133.03,145.66,118.74,51.5-9.68,107.88-51.73,73.41-108.81l4.55-15.91c.61-.75,3.75,2.7,4.23,3.24,6.55,7.34,12.42,20.87,14.44,30.46,9.5,45.11-19.89,76.48-58.13,93.73l-21.7,8.55c50.24.49,103.54-16.52,135.59-56.67,20.68-25.91,36.35-71.28,11.79-99.49-2.88-3.3-7.16-6.8-11.95-9.74-4.79-2.95-10.09-5.35-15-6.47-.18-.05-.4-.1-.61-.14-.01,0-.03-.01-.04-.01-.18-.04-.41-.08-.67-.13-.03-.01-.06-.01-.09-.02-.27-.05-.53-.09-.79-.13-.13-.02-.27-.04-.4-.06-3.07-.48-8.68-1.03-15.57-.36,3.18-4.47,6.4-9.45,7.7-14.81,31.32,1.35,58.39,22.35,63.55,53.88,6.88,42.02-19.02,86.01-51.25,111Z"/>
      <path class="cls-4" d="M763.97,121.59c0-.31,0-.55,0-.72l-.02-2.95v-48.85h-40.34v13.01h25.37v35.91s-.22,2.93-.87,5.44c-.18.61-.33,1.11-.4,1.29-2.94,7.52-14.07,6.1-19.2,1.58l-3.9-3.87-8.07,10.19c7.85,13.3,32.9,15.32,42.4,2.83.28-.28.58-.69.92-1.3.04-.08.08-.15.12-.23.11-.18.22-.34.32-.53.17-.31.38-.74.6-1.24,2.58-5.23,3.03-8.83,3.08-10.52,0,0,0,0,0,0v-.06Z"/>
      <path class="cls-4" d="M440.57,126c-21.21,12.64-43.48-7.09-34.8-30.25,4.61-12.29,18.51-16.92,30.07-12.6,0,0,.02.01.07.03.04.02.11.04.19.08,1.07.4,2.12.9,3.14,1.47l7.47,4.64c1.61-1.38,8.68-8.42,8.78-9.01-10.8-14.31-34.56-15.82-49.35-7.01-21.68,12.91-23.73,46.14-4.26,62.06,14.35,11.74,39.45,11,53.01-1.6v-28.96h-14.32v21.15Z"/>
      <path class="cls-4" d="M719.9,217.5c-4.39,3.46-8.32,7.54-14.25,8.32-35.15,4.62-36.04-48.13-4.5-48.13,7.79,0,13.18,3.57,18.77,8.44l1.23-1.12c1.61-1.41,4.15-3.55,5.99-5.44l3.05-2.77s-2.45-2.62-4.2-4.05c-.03-.03-.07-.06-.1-.09-.02-.01-.04-.03-.06-.04-.7-.57-1.55-1.18-2.38-1.74-.11-.08-.21-.15-.29-.21-.89-.61-1.78-1.16-2.69-1.68-.22-.13-.36-.22-.36-.22h0c-7.36-4.12-15.29-5.42-23.97-4.53-28.13,2.89-41.49,34.27-27.95,58.15,9.95,17.56,35.38,22.06,52.36,12.45,1.92-1.08,9.84-6.58,8.63-8.97-.5-.99-8.33-8.24-9.28-8.39Z"/>
      <path class="cls-3" d="M463.22,308.05c-8.63,2.71-18.26.74-25.91-3.79-.2-.12-.33-.22-.42-.32l4.05-8.45c5.45,4.64,24.2,7.81,22.36-3.54-.28-1.75-2.7-4.27-4.18-4.27h-10.17v-5.84c.05-.72.17-1.39.42-1.95,1.29-2.84,8.15-7.17,8.77-11.08h-18.87v-8.46h32.53c1.89,8.75-6.73,12.89-10.41,19.52,16.23,1.66,16.75,23.48,1.83,28.18Z"/>
      <line class="cls-3" x1="440.94" y1="295.49" x2="436.89" y2="303.94"/>
      <line class="cls-3" x1="432.59" y1="267.88" x2="432" y2="268.51"/>
      <path class="cls-3" d="M422.52,271.69h-.01.01Z"/>
      <path class="cls-3" d="M416.85,299.42c1.2-.12,5.51-.9,5.51-2.3v-13.34h9.76v19.19c-19.38,14.59-47.21,2.82-43.43-23.25,2.97-20.49,31.36-27.3,44.03-11.97l-.13.13c-.17.16-.37.38-.59.63l-.23.25-.42.45-2.09,2.24-.09.08-2.89,3.09-.04.04-3.26-2.6s-.01-.02-.02-.02c-.09-.07-.17-.14-.24-.19l-.17-.13s-.02-.02-.03-.03h-.01l-.05-.04c-1.41-1.11-3.12-2.3-5.8-2.66-22.16-3.02-25.07,32.85.19,30.43Z"/>
    </g>
  </g>
</svg>